<?xml version="1.0" standalone="no"?>
<!DOCTYPE svg PUBLIC "-//W3C//DTD SVG 20010904//EN"
 "http://www.w3.org/TR/2001/REC-SVG-20010904/DTD/svg10.dtd">
<svg version="1.0" xmlns="http://www.w3.org/2000/svg"
 width="1500.000000pt" height="1500.000000pt" viewBox="0 0 1500.000000 1500.000000"
 preserveAspectRatio="xMidYMid meet">
<metadata>
Created by potrace 1.11, written by Peter Selinger 2001-2013
</metadata>
<g transform="translate(0.000000,1500.000000) scale(0.100000,-0.100000)"
fill="#000000" stroke="none">
<path d="M6600 14981 c0 -21 -5 -22 -220 -41 -69 -6 -163 -21 -210 -32 -47
-11 -141 -29 -209 -39 -68 -10 -142 -27 -165 -38 -22 -11 -81 -25 -129 -30
-52 -6 -103 -18 -125 -30 -45 -25 -106 -41 -151 -41 -18 0 -49 -10 -68 -21
-19 -12 -64 -28 -100 -35 -36 -8 -96 -28 -133 -44 -38 -17 -78 -30 -89 -30
-12 0 -49 -13 -83 -29 -35 -16 -80 -33 -101 -36 -21 -4 -53 -18 -72 -31 -19
-12 -51 -26 -72 -30 -21 -3 -67 -21 -103 -39 -36 -18 -83 -39 -105 -45 -22 -7
-47 -18 -55 -25 -8 -8 -39 -22 -69 -34 -29 -11 -61 -26 -70 -34 -9 -8 -38 -21
-64 -30 -26 -9 -62 -28 -78 -42 -17 -14 -39 -25 -48 -25 -10 0 -36 -12 -57
-26 -21 -15 -58 -33 -80 -41 -23 -8 -50 -22 -61 -32 -11 -10 -39 -28 -64 -41
-102 -50 -148 -76 -166 -92 -10 -10 -37 -25 -58 -34 -22 -9 -42 -19 -45 -23
-10 -15 -161 -111 -173 -111 -8 0 -24 -12 -38 -26 -13 -14 -37 -33 -54 -41
-16 -9 -41 -25 -55 -35 -30 -23 -105 -77 -135 -98 -12 -8 -42 -30 -66 -47 -24
-18 -66 -47 -92 -65 -26 -18 -58 -43 -70 -54 -21 -21 -84 -75 -157 -135 -149
-122 -168 -138 -276 -234 -84 -76 -419 -411 -499 -500 -107 -120 -124 -139
-175 -204 -81 -101 -193 -231 -200 -231 -3 0 -14 -15 -24 -32 -11 -18 -27 -42
-36 -53 -9 -11 -26 -36 -36 -55 -10 -19 -29 -43 -41 -53 -13 -10 -23 -24 -23
-32 0 -7 -7 -19 -16 -26 -9 -7 -32 -38 -51 -68 -19 -30 -41 -61 -49 -68 -8 -8
-14 -18 -14 -23 0 -5 -12 -23 -27 -41 -16 -18 -37 -49 -48 -70 -11 -21 -43
-71 -71 -112 -28 -41 -57 -90 -64 -108 -8 -19 -20 -38 -27 -42 -8 -5 -25 -32
-39 -60 -13 -29 -40 -77 -59 -107 -38 -59 -85 -155 -85 -170 0 -6 -4 -10 -10
-10 -12 0 -40 -53 -40 -75 0 -9 -11 -31 -25 -49 -14 -18 -32 -56 -40 -83 -8
-28 -22 -56 -29 -63 -8 -6 -27 -43 -41 -81 -15 -38 -30 -69 -34 -69 -8 0 -26
-49 -36 -97 -4 -18 -11 -35 -16 -39 -14 -8 -45 -75 -52 -112 -4 -19 -17 -47
-28 -64 -12 -17 -26 -50 -30 -75 -5 -24 -22 -72 -39 -106 -16 -34 -30 -76 -30
-93 0 -18 -14 -58 -31 -90 -17 -32 -35 -81 -40 -109 -5 -27 -20 -75 -33 -105
-13 -30 -29 -89 -35 -130 -7 -41 -18 -81 -25 -90 -20 -23 -27 -48 -37 -138 -5
-46 -18 -102 -29 -125 -11 -23 -26 -89 -35 -147 -8 -58 -26 -150 -39 -205 -13
-55 -29 -161 -36 -235 -17 -207 -19 -220 -41 -220 -18 0 -19 -25 -19 -915 0
-890 1 -915 19 -915 22 0 24 -12 41 -225 7 -84 21 -176 36 -230 13 -49 28
-129 33 -176 6 -47 21 -119 35 -159 14 -40 30 -106 35 -146 5 -41 19 -94 31
-119 12 -24 28 -80 35 -123 8 -44 23 -95 34 -113 11 -19 24 -60 30 -92 6 -31
24 -88 41 -126 16 -38 30 -78 30 -89 0 -27 21 -84 36 -100 14 -14 34 -75 34
-105 0 -9 11 -34 24 -55 13 -20 31 -63 40 -94 9 -32 28 -74 41 -94 14 -20 25
-49 25 -63 0 -24 22 -68 41 -81 4 -3 14 -29 23 -59 9 -30 25 -64 35 -75 11
-12 24 -39 30 -61 6 -22 22 -56 36 -75 14 -19 30 -51 36 -72 5 -21 18 -46 28
-55 10 -10 26 -40 36 -68 9 -27 25 -59 35 -70 10 -11 27 -40 38 -65 11 -25 29
-54 41 -64 11 -11 21 -25 21 -33 0 -7 16 -36 35 -64 19 -28 35 -56 35 -63 0
-6 10 -22 23 -36 12 -14 31 -44 41 -67 10 -23 29 -52 42 -64 13 -12 24 -27 24
-32 0 -6 11 -24 24 -41 12 -17 31 -47 41 -66 10 -19 28 -43 41 -53 13 -10 24
-24 24 -31 0 -7 16 -31 35 -53 19 -23 35 -45 35 -49 0 -12 102 -146 164 -214
12 -14 30 -38 41 -55 10 -16 26 -39 36 -50 10 -11 36 -42 59 -70 37 -46 119
-138 195 -220 17 -17 49 -54 71 -81 61 -73 304 -316 423 -424 114 -104 160
-146 207 -191 16 -16 35 -29 42 -29 7 0 12 -4 12 -9 0 -5 37 -38 82 -73 44
-34 96 -75 113 -90 18 -16 37 -28 43 -28 6 0 19 -10 29 -23 10 -13 32 -32 48
-43 17 -10 38 -29 48 -41 10 -13 23 -23 29 -23 6 0 32 -16 58 -35 26 -19 52
-35 58 -35 6 0 19 -10 29 -23 18 -24 117 -92 163 -113 14 -6 36 -23 49 -38 14
-14 30 -26 37 -26 15 0 124 -66 169 -103 17 -13 42 -27 57 -31 15 -3 42 -20
60 -36 18 -17 40 -30 48 -30 9 0 21 -5 27 -11 13 -13 130 -76 213 -115 30 -14
62 -31 70 -38 8 -7 31 -19 50 -26 19 -7 55 -25 80 -40 25 -15 63 -33 85 -40
22 -7 51 -21 64 -32 13 -10 49 -26 80 -35 31 -8 69 -26 84 -39 16 -13 38 -24
50 -24 12 0 49 -13 82 -29 33 -16 80 -35 105 -42 25 -7 61 -22 80 -34 19 -11
62 -26 94 -33 32 -6 66 -18 75 -25 20 -18 77 -37 108 -37 14 0 56 -14 95 -31
38 -17 97 -35 130 -40 33 -5 81 -20 107 -33 25 -13 84 -28 130 -34 46 -7 90
-17 96 -22 20 -16 73 -31 150 -40 39 -5 120 -22 180 -39 65 -17 149 -32 205
-36 114 -7 170 -20 170 -40 0 -13 145 -15 1130 -15 985 0 1130 2 1130 15 0 19
48 30 195 44 66 6 144 17 173 26 28 8 75 22 104 30 29 8 74 15 101 15 29 0 75
11 114 26 37 15 103 32 148 39 47 7 97 21 116 33 19 11 66 26 104 32 39 7 92
23 118 36 26 14 71 29 99 34 28 6 74 21 102 34 28 13 69 27 91 32 22 4 64 20
94 35 30 16 65 29 78 29 14 0 52 15 86 34 34 19 78 37 98 40 19 3 51 17 69 31
18 14 50 27 69 31 20 3 49 15 64 26 16 11 53 28 83 38 31 11 69 31 85 45 17
14 38 25 48 25 9 0 41 16 71 35 30 19 63 35 74 35 11 0 31 11 45 24 15 13 47
31 73 41 26 10 53 24 60 32 7 8 35 26 63 40 85 41 137 72 159 92 12 11 37 27
56 35 19 8 48 26 64 40 16 15 35 26 42 26 7 0 26 11 42 25 17 14 46 32 65 40
20 8 42 23 49 33 7 10 29 28 48 40 20 11 47 30 59 42 13 11 29 20 35 20 7 0
29 16 49 35 20 19 41 35 46 35 5 0 23 12 39 28 28 26 95 75 134 98 11 6 33 26
50 43 17 17 35 31 40 31 6 0 22 12 37 28 29 29 80 73 211 182 225 186 584 550
750 760 28 35 73 89 100 120 48 55 112 131 161 192 14 18 34 48 43 66 9 17 20
32 24 32 4 0 16 15 27 32 10 18 26 40 35 48 9 8 39 51 68 95 28 44 63 91 77
105 14 14 25 30 25 36 0 6 18 38 40 70 22 33 40 63 40 67 0 4 9 18 21 30 11
12 27 38 35 57 8 19 24 44 35 56 20 22 51 74 92 159 14 28 32 56 40 63 8 7 22
34 32 60 10 26 28 58 41 73 13 14 24 34 24 45 0 11 16 44 35 74 19 30 35 61
35 70 0 9 15 40 34 69 19 29 37 65 41 79 4 15 17 41 29 57 13 17 26 47 29 69
3 21 18 55 31 75 14 20 29 52 32 71 4 19 19 58 35 85 15 28 33 73 40 100 6 28
20 64 31 82 10 18 26 61 35 95 8 35 21 70 28 78 17 20 35 77 35 109 0 15 13
53 29 86 16 33 35 92 41 130 7 39 21 85 32 104 11 19 26 75 34 124 8 50 21
102 29 116 23 43 35 91 35 140 0 26 7 70 15 99 8 29 22 75 30 103 8 28 21 117
30 196 8 80 17 149 21 154 3 5 12 9 20 9 12 0 14 153 14 1130 0 985 -2 1130
-15 1130 -20 0 -33 56 -40 175 -4 66 -18 143 -41 226 -19 70 -34 144 -34 165
0 42 -24 129 -40 149 -6 7 -16 52 -24 101 -7 49 -22 109 -33 134 -11 25 -25
74 -32 110 -7 36 -24 88 -38 117 -13 29 -27 69 -30 90 -3 21 -17 61 -30 88
-14 28 -31 78 -38 112 -7 34 -22 75 -33 91 -11 15 -28 57 -37 92 -9 36 -20 67
-25 70 -13 9 -40 68 -40 90 0 25 -27 80 -39 80 -5 0 -14 21 -20 48 -7 26 -22
63 -35 82 -12 19 -30 58 -41 85 -10 28 -26 60 -35 72 -9 12 -25 43 -35 70 -10
26 -23 55 -30 63 -8 8 -25 40 -39 70 -37 77 -53 107 -92 172 -19 31 -34 62
-34 70 0 7 -16 33 -35 57 -19 24 -35 51 -35 61 0 9 -11 27 -24 39 -14 13 -30
37 -37 54 -7 18 -26 50 -41 71 -15 21 -28 43 -28 49 0 5 -16 27 -35 48 -19 22
-35 44 -35 49 0 15 -64 111 -94 140 -14 14 -26 29 -26 33 0 4 -18 32 -40 61
-22 29 -40 58 -40 64 0 6 -11 19 -24 29 -13 10 -31 33 -40 51 -9 18 -21 32
-26 32 -5 0 -22 19 -36 43 -25 38 -38 55 -99 128 -11 13 -27 34 -36 47 -16 24
-110 131 -164 188 -16 17 -73 78 -125 135 -146 161 -392 400 -570 554 -30 26
-66 58 -80 71 -52 47 -107 92 -177 144 -40 29 -73 56 -73 59 0 4 -13 15 -30
24 -16 10 -42 30 -58 45 -29 27 -92 74 -129 95 -29 18 -100 68 -136 98 -18 15
-41 29 -53 33 -11 3 -36 20 -54 36 -19 17 -39 30 -45 30 -6 0 -22 11 -34 24
-12 13 -41 32 -64 42 -23 10 -51 27 -62 37 -11 10 -38 27 -60 38 -80 40 -129
69 -149 88 -12 11 -41 27 -66 37 -25 9 -52 25 -60 35 -8 10 -37 25 -65 35 -27
9 -58 25 -68 35 -9 10 -34 23 -55 28 -21 6 -53 22 -72 36 -19 14 -53 30 -75
36 -22 6 -49 19 -61 30 -11 10 -44 26 -72 34 -29 9 -69 27 -89 40 -20 14 -45
25 -57 25 -12 0 -37 11 -57 24 -20 14 -62 32 -95 41 -32 9 -72 26 -88 37 -15
11 -56 27 -89 35 -34 7 -68 20 -77 27 -19 16 -65 33 -112 41 -21 3 -62 17 -90
30 -29 14 -78 29 -108 35 -30 6 -80 22 -110 35 -30 13 -84 29 -120 35 -36 6
-84 21 -108 32 -24 11 -78 24 -120 29 -42 5 -99 17 -127 28 -58 23 -125 37
-210 46 -33 4 -96 17 -141 31 -44 13 -100 24 -125 24 -25 0 -81 4 -125 10 -43
5 -109 12 -146 15 -58 6 -68 9 -68 26 0 19 -19 19 -910 19 -888 0 -910 0 -910
-19z m-1412 -4283 c6 -18 13 -46 17 -63 3 -16 15 -39 25 -50 10 -11 25 -43 33
-71 8 -29 23 -61 32 -72 10 -10 26 -46 37 -78 11 -32 29 -71 39 -86 11 -15 27
-50 35 -77 8 -28 19 -53 24 -56 13 -8 40 -72 40 -94 0 -9 10 -32 23 -51 13
-19 29 -55 36 -80 7 -25 26 -65 42 -89 16 -25 29 -54 29 -66 0 -12 11 -38 25
-58 13 -20 31 -58 40 -84 9 -26 24 -60 35 -74 10 -14 25 -49 33 -77 9 -28 27
-68 41 -89 14 -21 26 -48 26 -60 0 -25 17 -61 37 -78 7 -5 18 -32 25 -60 7
-27 22 -63 34 -80 12 -16 27 -48 34 -70 7 -22 25 -65 40 -95 16 -30 34 -72 40
-94 7 -21 20 -46 30 -56 11 -11 22 -36 26 -57 3 -21 17 -52 29 -68 12 -17 26
-46 30 -65 8 -38 30 -86 50 -110 7 -8 20 -41 30 -72 10 -32 24 -63 31 -69 8
-6 21 -35 30 -65 8 -29 23 -63 33 -76 10 -13 26 -46 35 -75 10 -28 26 -63 36
-76 11 -13 24 -44 29 -67 5 -24 19 -55 30 -70 11 -15 27 -52 36 -83 9 -30 22
-61 30 -67 8 -6 21 -35 31 -63 9 -29 29 -73 45 -98 16 -25 29 -52 29 -60 0 -9
16 -46 35 -85 19 -38 35 -78 35 -88 0 -11 10 -33 23 -50 13 -17 29 -51 36 -76
7 -25 26 -65 42 -89 16 -25 29 -53 29 -63 0 -10 16 -47 35 -84 19 -36 35 -73
35 -83 0 -9 11 -32 24 -52 13 -19 31 -57 39 -85 8 -27 26 -67 41 -88 14 -21
26 -49 26 -61 0 -12 12 -39 26 -60 14 -21 33 -59 42 -84 12 -32 24 -47 42 -52
14 -4 453 -7 977 -8 l952 -1 15 22 c14 20 16 224 16 1968 1 1937 1 1945 21
1969 l20 25 576 -3 c317 -1 613 -6 657 -12 45 -5 124 -9 176 -9 137 -1 295
-17 327 -33 15 -8 64 -20 108 -27 44 -7 100 -19 125 -27 167 -57 216 -75 230
-88 9 -8 35 -21 58 -29 23 -9 57 -27 76 -41 18 -14 36 -25 41 -25 4 0 22 -12
40 -27 18 -16 61 -50 96 -78 60 -47 189 -173 189 -186 0 -3 14 -21 30 -39 16
-18 30 -39 30 -46 0 -8 9 -18 20 -24 11 -6 30 -30 41 -53 12 -23 32 -55 45
-70 13 -16 24 -34 24 -41 0 -17 24 -66 32 -66 4 0 16 -26 28 -57 12 -32 30
-71 40 -88 10 -16 23 -57 29 -89 6 -33 17 -69 24 -80 23 -36 38 -88 48 -171 5
-44 14 -107 19 -140 21 -132 23 -267 5 -375 -9 -58 -21 -134 -25 -170 -4 -36
-16 -85 -27 -110 -11 -25 -28 -72 -38 -105 -9 -33 -25 -71 -35 -85 -9 -14 -27
-45 -39 -70 -33 -69 -78 -143 -93 -155 -8 -5 -23 -23 -34 -40 -26 -41 -59 -78
-126 -145 l-57 -57 18 -29 c24 -40 37 -49 101 -69 30 -10 69 -29 86 -42 17
-12 38 -23 47 -23 9 0 31 -13 49 -29 18 -15 44 -34 58 -41 32 -17 151 -112
194 -155 52 -52 154 -172 167 -197 7 -13 20 -30 29 -38 9 -8 26 -33 38 -56 11
-22 27 -46 36 -53 9 -7 18 -28 22 -47 3 -19 19 -50 35 -70 16 -20 32 -53 35
-73 4 -20 19 -58 34 -86 15 -27 30 -73 33 -100 3 -28 13 -71 22 -95 34 -92 37
-121 42 -358 6 -257 -3 -357 -37 -454 -10 -30 -22 -79 -26 -109 -4 -32 -18
-72 -34 -99 -15 -25 -31 -61 -34 -80 -4 -19 -20 -55 -36 -79 -17 -24 -30 -52
-30 -62 0 -9 -11 -30 -24 -46 -13 -15 -32 -46 -44 -68 -11 -22 -29 -49 -41
-59 -12 -11 -21 -24 -21 -30 0 -6 -17 -27 -37 -47 -21 -20 -54 -55 -73 -78
-40 -49 -92 -101 -151 -151 -22 -19 -57 -52 -77 -73 -20 -20 -41 -37 -48 -37
-6 0 -19 -9 -30 -21 -10 -12 -39 -31 -64 -44 -25 -13 -54 -32 -64 -44 -11 -12
-27 -21 -36 -21 -10 0 -35 -12 -56 -27 -21 -14 -59 -32 -83 -39 -24 -8 -57
-22 -75 -33 -17 -10 -67 -26 -112 -35 -44 -9 -105 -26 -134 -37 -36 -13 -96
-23 -179 -29 -139 -10 -218 -22 -271 -42 -28 -10 -230 -12 -952 -13 -867 0
-918 1 -935 18 -17 17 -18 61 -23 688 -4 581 -7 671 -20 679 -21 13 -1475 13
-1499 0 -10 -5 -21 -16 -24 -25 -8 -19 17 -89 43 -122 10 -14 22 -41 26 -62 4
-20 17 -50 29 -67 13 -16 30 -54 39 -82 8 -29 24 -65 34 -80 11 -15 25 -45 32
-67 7 -22 25 -60 40 -85 15 -25 31 -61 34 -81 4 -21 15 -48 25 -61 10 -13 26
-48 35 -78 9 -29 24 -63 34 -74 10 -12 24 -41 31 -66 7 -25 26 -65 42 -89 16
-25 29 -52 29 -62 0 -19 20 -70 31 -79 13 -11 32 -56 44 -104 7 -28 16 -59 20
-68 14 -35 -48 -39 -532 -36 -449 3 -463 4 -477 23 -9 11 -16 27 -16 36 0 8
-13 35 -29 60 -16 24 -33 62 -37 84 -4 22 -17 54 -29 70 -12 17 -32 60 -44 97
-12 36 -28 71 -35 78 -8 6 -19 30 -25 54 -6 24 -24 69 -41 101 -16 31 -30 66
-30 78 0 11 -10 34 -23 51 -13 17 -29 50 -35 73 -7 23 -26 67 -42 98 -17 32
-30 65 -30 75 0 9 -11 34 -25 55 -14 20 -32 62 -40 93 -8 30 -21 63 -30 72 -8
9 -20 32 -25 51 -6 19 -26 66 -45 104 -19 39 -39 88 -44 111 -9 35 -16 42 -50
52 -57 18 -2640 16 -2661 -1 -22 -17 -80 -111 -80 -129 0 -18 -22 -69 -49
-113 -10 -16 -21 -43 -25 -60 -4 -16 -18 -46 -31 -65 -14 -20 -31 -56 -39 -82
-7 -25 -22 -55 -33 -67 -10 -11 -25 -43 -32 -70 -7 -28 -19 -55 -27 -62 -8 -6
-21 -35 -30 -65 -8 -29 -23 -63 -33 -76 -10 -13 -26 -48 -36 -78 -10 -30 -26
-66 -36 -79 -11 -13 -24 -42 -30 -65 -6 -22 -21 -57 -35 -76 -13 -20 -30 -56
-37 -80 -8 -25 -25 -62 -39 -82 -14 -21 -29 -54 -33 -75 -3 -21 -16 -48 -28
-60 -11 -13 -28 -44 -36 -70 -15 -43 -20 -48 -56 -55 -58 -12 -932 -5 -944 7
-16 16 11 127 41 172 14 21 31 56 38 78 7 22 21 52 32 67 10 15 25 47 32 72 8
25 23 57 35 72 11 15 26 45 32 67 6 23 19 52 29 65 10 13 26 47 36 75 9 29 27
66 39 82 12 17 27 50 34 74 7 25 23 59 36 75 12 17 25 47 29 67 4 21 16 49 27
63 11 14 27 47 36 73 9 27 24 57 34 69 10 11 25 41 33 66 7 26 23 59 35 73 11
15 23 43 27 64 3 20 17 52 30 72 13 19 32 58 42 86 10 27 25 62 35 76 9 14 24
47 32 72 9 25 27 62 40 82 14 20 25 43 25 53 0 9 13 36 29 61 16 24 35 64 41
89 7 24 22 57 35 71 12 15 25 45 29 68 3 22 17 52 31 67 13 14 27 43 31 63 3
20 19 56 34 81 15 25 33 63 40 85 7 22 24 54 37 71 12 17 23 38 23 47 0 21 19
63 47 106 13 19 23 42 23 51 0 9 11 34 25 54 14 20 33 62 44 92 10 29 25 62
34 72 10 10 24 43 33 73 9 30 20 56 24 59 13 9 40 68 40 88 0 10 11 33 25 52
13 18 32 56 41 83 9 27 27 66 40 85 13 19 24 40 24 46 0 6 15 43 34 81 96 199
116 243 116 254 0 7 11 27 24 44 12 18 29 53 36 80 7 26 16 47 21 47 12 0 39
55 39 78 0 11 10 34 23 53 13 19 33 62 46 96 13 34 29 67 37 74 7 6 20 35 29
65 8 30 27 70 40 90 14 20 25 44 25 52 0 8 15 43 34 76 18 34 39 78 45 98 7
20 19 42 27 49 8 6 22 37 30 68 9 31 27 68 39 83 12 14 25 44 28 65 4 22 16
48 27 58 11 10 28 44 37 74 8 31 26 69 39 84 13 16 24 37 24 47 0 25 21 73 37
83 7 4 19 30 27 58 8 27 24 62 34 77 11 15 29 54 41 86 12 33 30 71 40 85 10
14 21 40 25 56 4 17 20 51 36 75 17 25 30 54 30 65 0 12 15 44 34 73 19 29 37
70 41 90 4 20 17 49 30 64 13 15 26 45 30 67 3 21 16 49 27 61 11 12 27 42 34
66 7 25 22 57 32 72 11 15 27 50 36 77 9 28 25 61 35 75 10 14 26 49 36 79 10
30 28 70 41 89 13 19 24 41 24 49 0 8 7 27 15 44 l16 29 38 -20 c28 -14 42
-29 49 -52z"/>
<path d="M10053 9535 l-33 -14 0 -885 c0 -697 3 -887 13 -893 6 -4 116 -9 243
-11 183 -3 248 0 309 13 43 9 85 20 94 24 9 5 50 14 91 21 41 7 91 23 110 35
19 12 52 27 72 34 51 17 241 203 259 254 7 20 16 37 19 37 11 0 38 71 45 115
4 22 15 56 25 75 26 48 40 156 40 302 -1 163 -12 252 -43 335 -14 37 -31 87
-38 111 -7 23 -16 42 -20 42 -5 0 -20 22 -33 49 -29 57 -170 205 -207 216 -13
4 -37 18 -54 30 -16 13 -60 32 -97 44 -37 11 -82 28 -100 37 -75 39 -620 62
-695 29z"/>
<path d="M5083 8658 c-6 -7 -14 -31 -18 -53 -3 -22 -20 -60 -36 -84 -16 -25
-29 -54 -29 -65 0 -12 -11 -37 -23 -56 -13 -19 -32 -57 -42 -85 -11 -27 -29
-66 -41 -85 -12 -19 -27 -56 -34 -82 -7 -27 -16 -48 -19 -48 -12 0 -38 -54
-45 -91 -4 -21 -13 -43 -22 -50 -20 -17 -40 -56 -47 -97 -4 -18 -18 -48 -32
-66 -14 -18 -25 -40 -25 -49 0 -22 -30 -97 -39 -97 -8 0 -31 -60 -31 -80 0 -7
-13 -34 -29 -59 -16 -25 -34 -64 -41 -86 -7 -22 -22 -53 -35 -70 -12 -16 -25
-47 -29 -67 -4 -21 -18 -51 -33 -68 -14 -17 -30 -52 -34 -77 -5 -24 -19 -57
-32 -73 -13 -15 -30 -50 -37 -76 -7 -27 -21 -61 -31 -75 -10 -14 -25 -47 -34
-73 -9 -26 -27 -63 -40 -83 -14 -20 -25 -46 -25 -57 0 -12 -7 -31 -15 -42 -8
-10 -15 -38 -15 -61 l0 -43 898 0 c760 0 901 2 918 14 28 21 24 94 -8 143 -14
21 -33 63 -43 93 -9 30 -26 64 -36 76 -10 11 -23 41 -28 67 -4 25 -17 59 -27
74 -25 37 -44 81 -44 102 0 9 -11 32 -23 51 -13 19 -32 60 -42 90 -10 30 -26
64 -37 76 -10 12 -21 39 -25 60 -7 44 -29 94 -42 94 -5 0 -14 21 -21 48 -7 26
-23 65 -35 87 -12 22 -28 58 -35 80 -7 22 -25 63 -41 91 -16 28 -29 61 -29 73
0 25 -17 61 -36 76 -7 6 -18 30 -24 55 -6 25 -22 61 -34 80 -13 19 -31 60 -41
90 -10 30 -26 67 -36 81 -10 14 -23 45 -28 69 -5 24 -19 56 -30 71 -12 16 -28
53 -36 84 -8 31 -23 69 -35 84 -11 16 -20 33 -20 39 0 13 -39 62 -50 62 -4 0
-12 -6 -17 -12z"/>
<path d="M10026 6921 c-4 -6 -7 -421 -6 -923 l0 -913 23 -19 c21 -18 44 -18
502 -13 l480 5 103 36 c56 20 115 36 130 36 16 0 48 13 73 29 24 16 58 33 74
37 17 4 45 20 63 36 18 15 37 28 42 28 11 0 160 145 160 157 0 5 15 23 34 41
19 18 37 45 41 61 3 15 15 38 26 50 11 12 28 52 39 89 10 37 27 87 37 112 15
37 18 74 18 215 0 153 -2 174 -22 215 -11 25 -28 74 -37 109 -8 35 -24 74 -34
85 -10 12 -26 40 -36 63 -10 23 -29 52 -42 64 -13 12 -24 27 -24 33 0 8 -49
58 -140 141 -14 12 -42 30 -64 40 -21 10 -49 29 -62 42 -13 13 -34 23 -48 23
-14 0 -52 13 -83 30 -38 19 -91 35 -153 45 -52 8 -120 22 -150 32 -47 14 -120
17 -496 20 -300 3 -444 1 -448 -6z"/>
</g>
</svg>
